<svg width="204" height="70" viewBox="0 0 204 70" fill="none" xmlns="http://www.w3.org/2000/svg" xmlns:xlink="http://www.w3.org/1999/xlink">
<path d="M0,35C0,15.67 15.67,0 35,0L169,0C188.33,0 204,15.67 204,35L204,35C204,54.33 188.33,70 169,70L35,70C15.67,70 0,54.33 0,35L0,35Z" stroke="#595357" stroke-width="1" stroke-miterlimit="3.999327"/>
<path d="M0,35C0,15.67 15.67,0 35,0L169,0C188.33,0 204,15.67 204,35L204,35C204,54.33 188.33,70 169,70L35,70C15.67,70 0,54.33 0,35L0,35Z" stroke="#595357" stroke-width="1" stroke-miterlimit="3.999327"/>
<path d="M0,35C0,15.67 15.67,0 35,0L169,0C188.33,0 204,15.67 204,35L204,35C204,54.33 188.33,70 169,70L35,70C15.67,70 0,54.33 0,35L0,35Z" stroke="#595357" stroke-width="1" stroke-miterlimit="3.999327"/>
</svg>
