<svg width="120" height="40" viewBox="0 0 120 40" fill="none" xmlns="http://www.w3.org/2000/svg" xmlns:xlink="http://www.w3.org/1999/xlink">
<path d="M0,20C0,8.954 8.954,0 20,0L100,0C111.046,0 120,8.954 120,20L120,20C120,31.046 111.046,40 100,40L20,40C8.954,40 0,31.046 0,20L0,20Z" stroke="#FF0000" stroke-width="1" stroke-miterlimit="3.999327"/>
<path d="M0,20C0,8.954 8.954,0 20,0L100,0C111.046,0 120,8.954 120,20L120,20C120,31.046 111.046,40 100,40L20,40C8.954,40 0,31.046 0,20L0,20Z" stroke="#FF0000" stroke-width="1" stroke-miterlimit="3.999327"/>
<path d="M0,20C0,8.954 8.954,0 20,0L100,0C111.046,0 120,8.954 120,20L120,20C120,31.046 111.046,40 100,40L20,40C8.954,40 0,31.046 0,20L0,20Z" stroke="#FF0000" stroke-width="1" stroke-miterlimit="3.999327"/>
</svg>
