<svg width="280" height="280" viewBox="0 0 280 280" fill="none" xmlns="http://www.w3.org/2000/svg" xmlns:xlink="http://www.w3.org/1999/xlink">
<path d="M0,40C0,17.909 17.909,0 40,0L240,0C262.092,0 280,17.909 280,40L280,240C280,262.092 262.092,280 240,280L40,280C17.909,280 0,262.092 0,240L0,40Z" fill="url(#pattern_0_8_43)"/>
<path d="M0,40C0,17.909 17.909,0 40,0L240,0C262.092,0 280,17.909 280,40L280,240C280,262.092 262.092,280 240,280L40,280C17.909,280 0,262.092 0,240L0,40Z" fill="url(#pf_1_8_43)"/>
<path d="M0,40C0,17.909 17.909,0 40,0L240,0C262.092,0 280,17.909 280,40L280,240C280,262.092 262.092,280 240,280L40,280C17.909,280 0,262.092 0,240L0,40Z" stroke="#6D6969" stroke-width="1" stroke-miterlimit="3.999327"/>
<path d="M0,40C0,17.909 17.909,0 40,0L240,0C262.092,0 280,17.909 280,40L280,240C280,262.092 262.092,280 240,280L40,280C17.909,280 0,262.092 0,240L0,40Z" fill="url(#pattern_0_8_43)"/>
<path d="M0,40C0,17.909 17.909,0 40,0L240,0C262.092,0 280,17.909 280,40L280,240C280,262.092 262.092,280 240,280L40,280C17.909,280 0,262.092 0,240L0,40Z" fill="url(#pf_1_8_43)"/>
<path d="M0,40C0,17.909 17.909,0 40,0L240,0C262.092,0 280,17.909 280,40L280,240C280,262.092 262.092,280 240,280L40,280C17.909,280 0,262.092 0,240L0,40Z" stroke="#6D6969" stroke-width="1" stroke-miterlimit="3.999327"/>
<path d="M0,40C0,17.909 17.909,0 40,0L240,0C262.092,0 280,17.909 280,40L280,240C280,262.092 262.092,280 240,280L40,280C17.909,280 0,262.092 0,240L0,40Z" fill="url(#pattern_0_8_43)"/>
<path d="M0,40C0,17.909 17.909,0 40,0L240,0C262.092,0 280,17.909 280,40L280,240C280,262.092 262.092,280 240,280L40,280C17.909,280 0,262.092 0,240L0,40Z" fill="url(#pf_1_8_43)"/>
<path d="M0,40C0,17.909 17.909,0 40,0L240,0C262.092,0 280,17.909 280,40L280,240C280,262.092 262.092,280 240,280L40,280C17.909,280 0,262.092 0,240L0,40Z" stroke="#6D6969" stroke-width="1" stroke-miterlimit="3.999327"/>
<path d="M0,40C0,17.909 17.909,0 40,0L240,0C262.092,0 280,17.909 280,40L280,240C280,262.092 262.092,280 240,280L40,280C17.909,280 0,262.092 0,240L0,40Z" fill="url(#pattern_0_8_43)"/>
<path d="M0,40C0,17.909 17.909,0 40,0L240,0C262.092,0 280,17.909 280,40L280,240C280,262.092 262.092,280 240,280L40,280C17.909,280 0,262.092 0,240L0,40Z" fill="url(#pf_1_8_43)"/>
<path d="M0,40C0,17.909 17.909,0 40,0L240,0C262.092,0 280,17.909 280,40L280,240C280,262.092 262.092,280 240,280L40,280C17.909,280 0,262.092 0,240L0,40Z" stroke="#6D6969" stroke-width="1" stroke-miterlimit="3.999327"/>
<path d="M0,40C0,17.909 17.909,0 40,0L240,0C262.092,0 280,17.909 280,40L280,240C280,262.092 262.092,280 240,280L40,280C17.909,280 0,262.092 0,240L0,40Z" fill="url(#pattern_0_8_43)"/>
<path d="M0,40C0,17.909 17.909,0 40,0L240,0C262.092,0 280,17.909 280,40L280,240C280,262.092 262.092,280 240,280L40,280C17.909,280 0,262.092 0,240L0,40Z" fill="url(#pf_1_8_43)"/>
<path d="M0,40C0,17.909 17.909,0 40,0L240,0C262.092,0 280,17.909 280,40L280,240C280,262.092 262.092,280 240,280L40,280C17.909,280 0,262.092 0,240L0,40Z" stroke="#6D6969" stroke-width="1" stroke-miterlimit="3.999327"/>
<path d="M0,40C0,17.909 17.909,0 40,0L240,0C262.092,0 280,17.909 280,40L280,240C280,262.092 262.092,280 240,280L40,280C17.909,280 0,262.092 0,240L0,40Z" fill="url(#pattern_0_8_43)"/>
<path d="M0,40C0,17.909 17.909,0 40,0L240,0C262.092,0 280,17.909 280,40L280,240C280,262.092 262.092,280 240,280L40,280C17.909,280 0,262.092 0,240L0,40Z" fill="url(#pf_1_8_43)"/>
<path d="M0,40C0,17.909 17.909,0 40,0L240,0C262.092,0 280,17.909 280,40L280,240C280,262.092 262.092,280 240,280L40,280C17.909,280 0,262.092 0,240L0,40Z" stroke="#6D6969" stroke-width="1" stroke-miterlimit="3.999327"/>
<path d="M0,40C0,17.909 17.909,0 40,0L240,0C262.092,0 280,17.909 280,40L280,240C280,262.092 262.092,280 240,280L40,280C17.909,280 0,262.092 0,240L0,40Z" fill="url(#pattern_0_8_43)"/>
<path d="M0,40C0,17.909 17.909,0 40,0L240,0C262.092,0 280,17.909 280,40L280,240C280,262.092 262.092,280 240,280L40,280C17.909,280 0,262.092 0,240L0,40Z" fill="url(#pf_1_8_43)"/>
<path d="M0,40C0,17.909 17.909,0 40,0L240,0C262.092,0 280,17.909 280,40L280,240C280,262.092 262.092,280 240,280L40,280C17.909,280 0,262.092 0,240L0,40Z" stroke="#6D6969" stroke-width="1" stroke-miterlimit="3.999327"/>
<path d="M0,40C0,17.909 17.909,0 40,0L240,0C262.092,0 280,17.909 280,40L280,240C280,262.092 262.092,280 240,280L40,280C17.909,280 0,262.092 0,240L0,40Z" fill="url(#pattern_0_8_43)"/>
<path d="M0,40C0,17.909 17.909,0 40,0L240,0C262.092,0 280,17.909 280,40L280,240C280,262.092 262.092,280 240,280L40,280C17.909,280 0,262.092 0,240L0,40Z" fill="url(#pf_1_8_43)"/>
<path d="M0,40C0,17.909 17.909,0 40,0L240,0C262.092,0 280,17.909 280,40L280,240C280,262.092 262.092,280 240,280L40,280C17.909,280 0,262.092 0,240L0,40Z" stroke="#6D6969" stroke-width="1" stroke-miterlimit="3.999327"/>
<path d="M0,40C0,17.909 17.909,0 40,0L240,0C262.092,0 280,17.909 280,40L280,240C280,262.092 262.092,280 240,280L40,280C17.909,280 0,262.092 0,240L0,40Z" fill="url(#pattern_0_8_43)"/>
<path d="M0,40C0,17.909 17.909,0 40,0L240,0C262.092,0 280,17.909 280,40L280,240C280,262.092 262.092,280 240,280L40,280C17.909,280 0,262.092 0,240L0,40Z" fill="url(#pf_1_8_43)"/>
<path d="M0,40C0,17.909 17.909,0 40,0L240,0C262.092,0 280,17.909 280,40L280,240C280,262.092 262.092,280 240,280L40,280C17.909,280 0,262.092 0,240L0,40Z" stroke="#6D6969" stroke-width="1" stroke-miterlimit="3.999327"/>
<path d="M0,40C0,17.909 17.909,0 40,0L240,0C262.092,0 280,17.909 280,40L280,240C280,262.092 262.092,280 240,280L40,280C17.909,280 0,262.092 0,240L0,40Z" fill="url(#pattern_0_8_43)"/>
<path d="M0,40C0,17.909 17.909,0 40,0L240,0C262.092,0 280,17.909 280,40L280,240C280,262.092 262.092,280 240,280L40,280C17.909,280 0,262.092 0,240L0,40Z" fill="url(#pf_1_8_43)"/>
<path d="M0,40C0,17.909 17.909,0 40,0L240,0C262.092,0 280,17.909 280,40L280,240C280,262.092 262.092,280 240,280L40,280C17.909,280 0,262.092 0,240L0,40Z" stroke="#6D6969" stroke-width="1" stroke-miterlimit="3.999327"/>
<path d="M0,40C0,17.909 17.909,0 40,0L240,0C262.092,0 280,17.909 280,40L280,240C280,262.092 262.092,280 240,280L40,280C17.909,280 0,262.092 0,240L0,40Z" fill="url(#pattern_0_8_43)"/>
<path d="M0,40C0,17.909 17.909,0 40,0L240,0C262.092,0 280,17.909 280,40L280,240C280,262.092 262.092,280 240,280L40,280C17.909,280 0,262.092 0,240L0,40Z" fill="url(#pf_1_8_43)"/>
<path d="M0,40C0,17.909 17.909,0 40,0L240,0C262.092,0 280,17.909 280,40L280,240C280,262.092 262.092,280 240,280L40,280C17.909,280 0,262.092 0,240L0,40Z" stroke="#6D6969" stroke-width="1" stroke-miterlimit="3.999327"/>
<defs>
<linearGradient id="pf_1_8_43" x1="140" y1="0" x2="140" y2="280" gradientUnits="userSpaceOnUse">
<stop stop-color="#716549" stop-opacity="0.52"/>
<stop offset="0" stop-color="#000000" stop-opacity="0.52"/>
</linearGradient>
<linearGradient id="pf_1_8_43" x1="140" y1="0" x2="140" y2="280" gradientUnits="userSpaceOnUse">
<stop stop-color="#716549" stop-opacity="0.52"/>
<stop offset="0" stop-color="#000000" stop-opacity="0.52"/>
</linearGradient>
<linearGradient id="pf_1_8_43" x1="140" y1="0" x2="140" y2="280" gradientUnits="userSpaceOnUse">
<stop stop-color="#716549" stop-opacity="0.52"/>
<stop offset="0" stop-color="#000000" stop-opacity="0.52"/>
</linearGradient>
<linearGradient id="pf_1_8_43" x1="140" y1="0" x2="140" y2="280" gradientUnits="userSpaceOnUse">
<stop stop-color="#716549" stop-opacity="0.52"/>
<stop offset="0" stop-color="#000000" stop-opacity="0.52"/>
</linearGradient>
<linearGradient id="pf_1_8_43" x1="140" y1="0" x2="140" y2="280" gradientUnits="userSpaceOnUse">
<stop stop-color="#716549" stop-opacity="0.52"/>
<stop offset="0" stop-color="#000000" stop-opacity="0.52"/>
</linearGradient>
<linearGradient id="pf_1_8_43" x1="140" y1="0" x2="140" y2="280" gradientUnits="userSpaceOnUse">
<stop stop-color="#716549" stop-opacity="0.52"/>
<stop offset="0" stop-color="#000000" stop-opacity="0.52"/>
</linearGradient>
<linearGradient id="pf_1_8_43" x1="140" y1="0" x2="140" y2="280" gradientUnits="userSpaceOnUse">
<stop stop-color="#716549" stop-opacity="0.52"/>
<stop offset="0" stop-color="#000000" stop-opacity="0.52"/>
</linearGradient>
<linearGradient id="pf_1_8_43" x1="140" y1="0" x2="140" y2="280" gradientUnits="userSpaceOnUse">
<stop stop-color="#716549" stop-opacity="0.52"/>
<stop offset="0" stop-color="#000000" stop-opacity="0.52"/>
</linearGradient>
<linearGradient id="pf_1_8_43" x1="140" y1="0" x2="140" y2="280" gradientUnits="userSpaceOnUse">
<stop stop-color="#716549" stop-opacity="0.52"/>
<stop offset="0" stop-color="#000000" stop-opacity="0.52"/>
</linearGradient>
<linearGradient id="pf_1_8_43" x1="140" y1="0" x2="140" y2="280" gradientUnits="userSpaceOnUse">
<stop stop-color="#716549" stop-opacity="0.52"/>
<stop offset="0" stop-color="#000000" stop-opacity="0.52"/>
</linearGradient>
<linearGradient id="pf_1_8_43" x1="140" y1="0" x2="140" y2="280" gradientUnits="userSpaceOnUse">
<stop stop-color="#716549" stop-opacity="0.52"/>
<stop offset="0" stop-color="#000000" stop-opacity="0.52"/>
</linearGradient>
</defs>
</svg>
