<svg width="280" height="280" viewBox="0 0 280 280" fill="none" xmlns="http://www.w3.org/2000/svg" xmlns:xlink="http://www.w3.org/1999/xlink">
<path d="M0,39C0,16.909 17.909,-1 40,-1L240,-1C262.092,-1 280,16.909 280,39L280,239C280,261.092 262.092,279 240,279L40,279C17.909,279 0,261.092 0,239L0,39Z" fill="url(#pattern_0_8_46)"/>
<path d="M0,39C0,16.909 17.909,-1 40,-1L240,-1C262.092,-1 280,16.909 280,39L280,239C280,261.092 262.092,279 240,279L40,279C17.909,279 0,261.092 0,239L0,39Z" fill="url(#pf_1_8_46)"/>
<path d="M0,39C0,16.909 17.909,-1 40,-1L240,-1C262.092,-1 280,16.909 280,39L280,239C280,261.092 262.092,279 240,279L40,279C17.909,279 0,261.092 0,239L0,39Z" stroke="#626262" stroke-width="1" stroke-miterlimit="3.999327"/>
<path d="M0,39C0,16.909 17.909,-1 40,-1L240,-1C262.092,-1 280,16.909 280,39L280,239C280,261.092 262.092,279 240,279L40,279C17.909,279 0,261.092 0,239L0,39Z" fill="url(#pattern_0_8_46)"/>
<path d="M0,39C0,16.909 17.909,-1 40,-1L240,-1C262.092,-1 280,16.909 280,39L280,239C280,261.092 262.092,279 240,279L40,279C17.909,279 0,261.092 0,239L0,39Z" fill="url(#pf_1_8_46)"/>
<path d="M0,39C0,16.909 17.909,-1 40,-1L240,-1C262.092,-1 280,16.909 280,39L280,239C280,261.092 262.092,279 240,279L40,279C17.909,279 0,261.092 0,239L0,39Z" stroke="#626262" stroke-width="1" stroke-miterlimit="3.999327"/>
<path d="M0,39C0,16.909 17.909,-1 40,-1L240,-1C262.092,-1 280,16.909 280,39L280,239C280,261.092 262.092,279 240,279L40,279C17.909,279 0,261.092 0,239L0,39Z" fill="url(#pattern_0_8_46)"/>
<path d="M0,39C0,16.909 17.909,-1 40,-1L240,-1C262.092,-1 280,16.909 280,39L280,239C280,261.092 262.092,279 240,279L40,279C17.909,279 0,261.092 0,239L0,39Z" fill="url(#pf_1_8_46)"/>
<path d="M0,39C0,16.909 17.909,-1 40,-1L240,-1C262.092,-1 280,16.909 280,39L280,239C280,261.092 262.092,279 240,279L40,279C17.909,279 0,261.092 0,239L0,39Z" stroke="#626262" stroke-width="1" stroke-miterlimit="3.999327"/>
<path d="M0,39C0,16.909 17.909,-1 40,-1L240,-1C262.092,-1 280,16.909 280,39L280,239C280,261.092 262.092,279 240,279L40,279C17.909,279 0,261.092 0,239L0,39Z" fill="url(#pattern_0_8_46)"/>
<path d="M0,39C0,16.909 17.909,-1 40,-1L240,-1C262.092,-1 280,16.909 280,39L280,239C280,261.092 262.092,279 240,279L40,279C17.909,279 0,261.092 0,239L0,39Z" fill="url(#pf_1_8_46)"/>
<path d="M0,39C0,16.909 17.909,-1 40,-1L240,-1C262.092,-1 280,16.909 280,39L280,239C280,261.092 262.092,279 240,279L40,279C17.909,279 0,261.092 0,239L0,39Z" stroke="#626262" stroke-width="1" stroke-miterlimit="3.999327"/>
<path d="M0,39C0,16.909 17.909,-1 40,-1L240,-1C262.092,-1 280,16.909 280,39L280,239C280,261.092 262.092,279 240,279L40,279C17.909,279 0,261.092 0,239L0,39Z" fill="url(#pattern_0_8_46)"/>
<path d="M0,39C0,16.909 17.909,-1 40,-1L240,-1C262.092,-1 280,16.909 280,39L280,239C280,261.092 262.092,279 240,279L40,279C17.909,279 0,261.092 0,239L0,39Z" fill="url(#pf_1_8_46)"/>
<path d="M0,39C0,16.909 17.909,-1 40,-1L240,-1C262.092,-1 280,16.909 280,39L280,239C280,261.092 262.092,279 240,279L40,279C17.909,279 0,261.092 0,239L0,39Z" stroke="#626262" stroke-width="1" stroke-miterlimit="3.999327"/>
<path d="M0,39C0,16.909 17.909,-1 40,-1L240,-1C262.092,-1 280,16.909 280,39L280,239C280,261.092 262.092,279 240,279L40,279C17.909,279 0,261.092 0,239L0,39Z" fill="url(#pattern_0_8_46)"/>
<path d="M0,39C0,16.909 17.909,-1 40,-1L240,-1C262.092,-1 280,16.909 280,39L280,239C280,261.092 262.092,279 240,279L40,279C17.909,279 0,261.092 0,239L0,39Z" fill="url(#pf_1_8_46)"/>
<path d="M0,39C0,16.909 17.909,-1 40,-1L240,-1C262.092,-1 280,16.909 280,39L280,239C280,261.092 262.092,279 240,279L40,279C17.909,279 0,261.092 0,239L0,39Z" stroke="#626262" stroke-width="1" stroke-miterlimit="3.999327"/>
<path d="M0,39C0,16.909 17.909,-1 40,-1L240,-1C262.092,-1 280,16.909 280,39L280,239C280,261.092 262.092,279 240,279L40,279C17.909,279 0,261.092 0,239L0,39Z" fill="url(#pattern_0_8_46)"/>
<path d="M0,39C0,16.909 17.909,-1 40,-1L240,-1C262.092,-1 280,16.909 280,39L280,239C280,261.092 262.092,279 240,279L40,279C17.909,279 0,261.092 0,239L0,39Z" fill="url(#pf_1_8_46)"/>
<path d="M0,39C0,16.909 17.909,-1 40,-1L240,-1C262.092,-1 280,16.909 280,39L280,239C280,261.092 262.092,279 240,279L40,279C17.909,279 0,261.092 0,239L0,39Z" stroke="#626262" stroke-width="1" stroke-miterlimit="3.999327"/>
<path d="M0,39C0,16.909 17.909,-1 40,-1L240,-1C262.092,-1 280,16.909 280,39L280,239C280,261.092 262.092,279 240,279L40,279C17.909,279 0,261.092 0,239L0,39Z" fill="url(#pattern_0_8_46)"/>
<path d="M0,39C0,16.909 17.909,-1 40,-1L240,-1C262.092,-1 280,16.909 280,39L280,239C280,261.092 262.092,279 240,279L40,279C17.909,279 0,261.092 0,239L0,39Z" fill="url(#pf_1_8_46)"/>
<path d="M0,39C0,16.909 17.909,-1 40,-1L240,-1C262.092,-1 280,16.909 280,39L280,239C280,261.092 262.092,279 240,279L40,279C17.909,279 0,261.092 0,239L0,39Z" stroke="#626262" stroke-width="1" stroke-miterlimit="3.999327"/>
<path d="M0,39C0,16.909 17.909,-1 40,-1L240,-1C262.092,-1 280,16.909 280,39L280,239C280,261.092 262.092,279 240,279L40,279C17.909,279 0,261.092 0,239L0,39Z" fill="url(#pattern_0_8_46)"/>
<path d="M0,39C0,16.909 17.909,-1 40,-1L240,-1C262.092,-1 280,16.909 280,39L280,239C280,261.092 262.092,279 240,279L40,279C17.909,279 0,261.092 0,239L0,39Z" fill="url(#pf_1_8_46)"/>
<path d="M0,39C0,16.909 17.909,-1 40,-1L240,-1C262.092,-1 280,16.909 280,39L280,239C280,261.092 262.092,279 240,279L40,279C17.909,279 0,261.092 0,239L0,39Z" stroke="#626262" stroke-width="1" stroke-miterlimit="3.999327"/>
<path d="M0,39C0,16.909 17.909,-1 40,-1L240,-1C262.092,-1 280,16.909 280,39L280,239C280,261.092 262.092,279 240,279L40,279C17.909,279 0,261.092 0,239L0,39Z" fill="url(#pattern_0_8_46)"/>
<path d="M0,39C0,16.909 17.909,-1 40,-1L240,-1C262.092,-1 280,16.909 280,39L280,239C280,261.092 262.092,279 240,279L40,279C17.909,279 0,261.092 0,239L0,39Z" fill="url(#pf_1_8_46)"/>
<path d="M0,39C0,16.909 17.909,-1 40,-1L240,-1C262.092,-1 280,16.909 280,39L280,239C280,261.092 262.092,279 240,279L40,279C17.909,279 0,261.092 0,239L0,39Z" stroke="#626262" stroke-width="1" stroke-miterlimit="3.999327"/>
<path d="M0,39C0,16.909 17.909,-1 40,-1L240,-1C262.092,-1 280,16.909 280,39L280,239C280,261.092 262.092,279 240,279L40,279C17.909,279 0,261.092 0,239L0,39Z" fill="url(#pattern_0_8_46)"/>
<path d="M0,39C0,16.909 17.909,-1 40,-1L240,-1C262.092,-1 280,16.909 280,39L280,239C280,261.092 262.092,279 240,279L40,279C17.909,279 0,261.092 0,239L0,39Z" fill="url(#pf_1_8_46)"/>
<path d="M0,39C0,16.909 17.909,-1 40,-1L240,-1C262.092,-1 280,16.909 280,39L280,239C280,261.092 262.092,279 240,279L40,279C17.909,279 0,261.092 0,239L0,39Z" stroke="#626262" stroke-width="1" stroke-miterlimit="3.999327"/>
<defs>
<linearGradient id="pf_1_8_46" x1="140" y1="-1" x2="140" y2="279" gradientUnits="userSpaceOnUse">
<stop stop-color="#866A20" stop-opacity="0.2"/>
<stop offset="0" stop-color="#000000" stop-opacity="0.2"/>
</linearGradient>
<linearGradient id="pf_1_8_46" x1="140" y1="-1" x2="140" y2="279" gradientUnits="userSpaceOnUse">
<stop stop-color="#866A20" stop-opacity="0.2"/>
<stop offset="0" stop-color="#000000" stop-opacity="0.2"/>
</linearGradient>
<linearGradient id="pf_1_8_46" x1="140" y1="-1" x2="140" y2="279" gradientUnits="userSpaceOnUse">
<stop stop-color="#866A20" stop-opacity="0.2"/>
<stop offset="0" stop-color="#000000" stop-opacity="0.2"/>
</linearGradient>
<linearGradient id="pf_1_8_46" x1="140" y1="-1" x2="140" y2="279" gradientUnits="userSpaceOnUse">
<stop stop-color="#866A20" stop-opacity="0.2"/>
<stop offset="0" stop-color="#000000" stop-opacity="0.2"/>
</linearGradient>
<linearGradient id="pf_1_8_46" x1="140" y1="-1" x2="140" y2="279" gradientUnits="userSpaceOnUse">
<stop stop-color="#866A20" stop-opacity="0.2"/>
<stop offset="0" stop-color="#000000" stop-opacity="0.2"/>
</linearGradient>
<linearGradient id="pf_1_8_46" x1="140" y1="-1" x2="140" y2="279" gradientUnits="userSpaceOnUse">
<stop stop-color="#866A20" stop-opacity="0.2"/>
<stop offset="0" stop-color="#000000" stop-opacity="0.2"/>
</linearGradient>
<linearGradient id="pf_1_8_46" x1="140" y1="-1" x2="140" y2="279" gradientUnits="userSpaceOnUse">
<stop stop-color="#866A20" stop-opacity="0.2"/>
<stop offset="0" stop-color="#000000" stop-opacity="0.2"/>
</linearGradient>
<linearGradient id="pf_1_8_46" x1="140" y1="-1" x2="140" y2="279" gradientUnits="userSpaceOnUse">
<stop stop-color="#866A20" stop-opacity="0.2"/>
<stop offset="0" stop-color="#000000" stop-opacity="0.2"/>
</linearGradient>
<linearGradient id="pf_1_8_46" x1="140" y1="-1" x2="140" y2="279" gradientUnits="userSpaceOnUse">
<stop stop-color="#866A20" stop-opacity="0.2"/>
<stop offset="0" stop-color="#000000" stop-opacity="0.2"/>
</linearGradient>
<linearGradient id="pf_1_8_46" x1="140" y1="-1" x2="140" y2="279" gradientUnits="userSpaceOnUse">
<stop stop-color="#866A20" stop-opacity="0.2"/>
<stop offset="0" stop-color="#000000" stop-opacity="0.2"/>
</linearGradient>
<linearGradient id="pf_1_8_46" x1="140" y1="-1" x2="140" y2="279" gradientUnits="userSpaceOnUse">
<stop stop-color="#866A20" stop-opacity="0.2"/>
<stop offset="0" stop-color="#000000" stop-opacity="0.2"/>
</linearGradient>
</defs>
</svg>
