<svg width="204" height="70" viewBox="0 0 204 70" fill="none" xmlns="http://www.w3.org/2000/svg" xmlns:xlink="http://www.w3.org/1999/xlink">
<path d="M0,35C0,15.67 15.67,0 35,0L169,0C188.33,0 204,15.67 204,35L204,35C204,54.33 188.33,70 169,70L35,70C15.67,70 0,54.33 0,35L0,35Z" stroke="url(#ps_0_8_118)" stroke-width="2" stroke-miterlimit="3.999327"/>
<path d="M0,35C0,15.67 15.67,0 35,0L169,0C188.33,0 204,15.67 204,35L204,35C204,54.33 188.33,70 169,70L35,70C15.67,70 0,54.33 0,35L0,35Z" stroke="url(#ps_0_8_118)" stroke-width="2" stroke-miterlimit="3.999327"/>
<path d="M0,35C0,15.67 15.67,0 35,0L169,0C188.33,0 204,15.67 204,35L204,35C204,54.33 188.33,70 169,70L35,70C15.67,70 0,54.33 0,35L0,35Z" stroke="url(#ps_0_8_118)" stroke-width="2" stroke-miterlimit="3.999327"/>
<defs>
<linearGradient id="ps_0_8_118" x1="102" y1="0" x2="102" y2="70" gradientUnits="userSpaceOnUse">
<stop stop-color="#E7C3DD"/>
<stop offset="1" stop-color="#544667"/>
</linearGradient>
<linearGradient id="ps_0_8_118" x1="102" y1="0" x2="102" y2="70" gradientUnits="userSpaceOnUse">
<stop stop-color="#E7C3DD"/>
<stop offset="1" stop-color="#544667"/>
</linearGradient>
<linearGradient id="ps_0_8_118" x1="102" y1="0" x2="102" y2="70" gradientUnits="userSpaceOnUse">
<stop stop-color="#E7C3DD"/>
<stop offset="1" stop-color="#544667"/>
</linearGradient>
</defs>
</svg>
