<svg width="120" height="40" viewBox="0 0 120 40" fill="none" xmlns="http://www.w3.org/2000/svg" xmlns:xlink="http://www.w3.org/1999/xlink">
<g filter="url(#filter8_134)">
<path d="M0,20C0,8.954 8.954,0 20,0L100,0C111.046,0 120,8.954 120,20L120,20C120,31.046 111.046,40 100,40L20,40C8.954,40 0,31.046 0,20L0,20Z" fill="#E84644"/>
<path d="M0,20C0,8.954 8.954,0 20,0L100,0C111.046,0 120,8.954 120,20L120,20C120,31.046 111.046,40 100,40L20,40C8.954,40 0,31.046 0,20L0,20Z" fill="#E84644"/>
<path d="M0,20C0,8.954 8.954,0 20,0L100,0C111.046,0 120,8.954 120,20L120,20C120,31.046 111.046,40 100,40L20,40C8.954,40 0,31.046 0,20L0,20Z" fill="#E84644"/>
</g>
<defs>
<filter id="filter8_134" x="-50" y="-50" width="160" height="120" filterUnits="userSpaceOnUse" color-interpolation-filters="sRGB">
<feFlood flood-opacity="0" result="BackgroundImageFix"/>
<feBlend mode="normal" in="SourceGraphic" in2="BackgroundImageFix" result="shape"/>
<feGaussianBlur stdDeviation="25" result="0foregroundblur"/>
</filter>
</defs>
</svg>
