<svg width="40" height="28" viewBox="0 0 40 28" fill="none" xmlns="http://www.w3.org/2000/svg" xmlns:xlink="http://www.w3.org/1999/xlink">
<path d="M4,28C2.9,28 1.958,27.543 1.175,26.629C0.392,25.715 0,24.617 0,23.333L0,4.667C0,3.383 0.392,2.285 1.175,1.371C1.958,0.457 2.9,0 4,0L36,0C37.1,0 38.042,0.457 38.825,1.371C39.608,2.285 40,3.383 40,4.667L40,23.333C40,24.617 39.608,25.715 38.825,26.629C38.042,27.543 37.1,28 36,28L4,28ZM4,23.333L36,23.333L36,4.667L4,4.667L4,23.333ZM10,21L14,21L14,16.333L18,16.333L18,11.667L14,11.667L14,7L10,7L10,11.667L6,11.667L6,16.333L10,16.333L10,21ZM25,21C25.833,21 26.542,20.66 27.125,19.979C27.708,19.299 28,18.472 28,17.5C28,16.528 27.708,15.701 27.125,15.021C26.542,14.34 25.833,14 25,14C24.167,14 23.458,14.34 22.875,15.021C22.292,15.701 22,16.528 22,17.5C22,18.472 22.292,19.299 22.875,19.979C23.458,20.66 24.167,21 25,21ZM31,14C31.833,14 32.542,13.66 33.125,12.979C33.708,12.299 34,11.472 34,10.5C34,9.528 33.708,8.701 33.125,8.021C32.542,7.34 31.833,7 31,7C30.167,7 29.458,7.34 28.875,8.021C28.292,8.701 28,9.528 28,10.5C28,11.472 28.292,12.299 28.875,12.979C29.458,13.66 30.167,14 31,14Z" fill="#EE6D60"/>
</svg>
