<svg width="32" height="24" viewBox="0 0 32 24" fill="none" xmlns="http://www.w3.org/2000/svg" xmlns:xlink="http://www.w3.org/1999/xlink">
<path d="M12.514,15.182L21.024,10.734L12.514,6.222L12.514,15.182ZM15.76,-0.21C22.379,-0.21 26.792,0.11 26.792,0.11C27.391,0.206 28.746,0.206 29.944,1.486C29.944,1.486 30.921,2.446 31.204,4.654C31.551,7.246 31.52,9.838 31.52,9.838L31.52,12.27C31.52,12.27 31.551,14.862 31.204,17.454C30.921,19.63 29.944,20.622 29.944,20.622C28.746,21.902 27.391,21.902 26.792,21.966C26.792,21.966 22.379,22.318 15.76,22.318C7.565,22.222 5.044,21.966 5.044,21.966C4.35,21.838 2.774,21.902 1.577,20.622C1.577,20.622 0.6,19.63 0.316,17.454C-0.031,14.862 0.001,12.27 0.001,12.27L0.001,9.838C0.001,9.838 -0.031,7.246 0.316,4.654C0.6,2.446 1.577,1.486 1.577,1.486C2.774,0.206 4.13,0.206 4.729,0.11C4.729,0.11 9.141,-0.21 15.76,-0.21Z" fill="#3E3D3D"/>
</svg>
