<svg width="18" height="22" viewBox="0 0 18 22" fill="none" xmlns="http://www.w3.org/2000/svg" xmlns:xlink="http://www.w3.org/1999/xlink">
<path d="M3.8,12L9,15L14.2,12L10,9.575L10,13L8,13L8,9.575L3.8,12ZM8,7.275L8,6.85C7.267,6.633 6.667,6.221 6.2,5.613C5.733,5.004 5.5,4.3 5.5,3.5C5.5,2.533 5.842,1.708 6.525,1.025C7.208,0.342 8.033,0 9,0C9.967,0 10.792,0.342 11.475,1.025C12.158,1.708 12.5,2.533 12.5,3.5C12.5,4.3 12.267,5.004 11.8,5.613C11.333,6.221 10.733,6.633 10,6.85L10,7.275L17,11.3C17.317,11.483 17.563,11.729 17.738,12.038C17.913,12.346 18,12.683 18,13.05L18,14.95C18,15.317 17.913,15.654 17.738,15.962C17.563,16.271 17.317,16.517 17,16.7L10,20.725C9.683,20.908 9.35,21 9,21C8.65,21 8.317,20.908 8,20.725L1,16.7C0.683,16.517 0.438,16.271 0.262,15.962C0.087,15.654 0,15.317 0,14.95L0,13.05C0,12.683 0.087,12.346 0.262,12.038C0.438,11.729 0.683,11.483 1,11.3L8,7.275ZM8,16.725L2,13.275L2,14.95L9,19L16,14.95L16,13.275L10,16.725C9.683,16.908 9.35,17 9,17C8.65,17 8.317,16.908 8,16.725ZM9,5C9.417,5 9.771,4.854 10.063,4.563C10.354,4.271 10.5,3.917 10.5,3.5C10.5,3.083 10.354,2.729 10.063,2.438C9.771,2.146 9.417,2 9,2C8.583,2 8.229,2.146 7.938,2.438C7.646,2.729 7.5,3.083 7.5,3.5C7.5,3.917 7.646,4.271 7.938,4.563C8.229,4.854 8.583,5 9,5Z" fill="#E8EAED"/>
</svg>
