<svg width="46" height="44" viewBox="0 0 46 44" fill="none" xmlns="http://www.w3.org/2000/svg" xmlns:xlink="http://www.w3.org/1999/xlink">
<path d="M9,25.083L22,31.333L35,25.083L24.5,20.031L24.5,27.167L19.5,27.167L19.5,20.031L9,25.083ZM19.5,15.24L19.5,14.354C17.667,13.903 16.167,13.044 15,11.776C13.833,10.509 13.25,9.042 13.25,7.375C13.25,5.361 14.104,3.643 15.813,2.219C17.521,0.795 19.583,0.083 22,0.083C24.417,0.083 26.479,0.795 28.188,2.219C29.896,3.643 30.75,5.361 30.75,7.375C30.75,9.042 30.167,10.509 29,11.776C27.833,13.044 26.333,13.903 24.5,14.354L24.5,15.24L42,23.625C42.792,24.007 43.406,24.519 43.844,25.162C44.281,25.804 44.5,26.507 44.5,27.271L44.5,31.229C44.5,31.993 44.281,32.696 43.844,33.339C43.406,33.981 42.792,34.493 42,34.875L24.5,43.26C23.708,43.642 22.875,43.833 22,43.833C21.125,43.833 20.292,43.642 19.5,43.26L2,34.875C1.208,34.493 0.594,33.981 0.156,33.339C-0.281,32.696 -0.5,31.993 -0.5,31.229L-0.5,27.271C-0.5,26.507 -0.281,25.804 0.156,25.162C0.594,24.519 1.208,24.007 2,23.625L19.5,15.24ZM19.5,34.927L4.5,27.74L4.5,31.229L22,39.667L39.5,31.229L39.5,27.74L24.5,34.927C23.708,35.309 22.875,35.5 22,35.5C21.125,35.5 20.292,35.309 19.5,34.927ZM22,10.5C23.042,10.5 23.927,10.196 24.656,9.589C25.385,8.981 25.75,8.243 25.75,7.375C25.75,6.507 25.385,5.769 24.656,5.162C23.927,4.554 23.042,4.25 22,4.25C20.958,4.25 20.073,4.554 19.344,5.162C18.615,5.769 18.25,6.507 18.25,7.375C18.25,8.243 18.615,8.981 19.344,9.589C20.073,10.196 20.958,10.5 22,10.5Z" fill="#E8EAED"/>
</svg>
