<svg width="18" height="20" viewBox="0 0 18 20" fill="none" xmlns="http://www.w3.org/2000/svg" xmlns:xlink="http://www.w3.org/1999/xlink">
<path d="M2.8,11L8,14L13.2,11L9,8.575L9,12L7,12L7,8.575L2.8,11ZM7,6.275L7,5.85C6.267,5.633 5.667,5.221 5.2,4.613C4.733,4.004 4.5,3.3 4.5,2.5C4.5,1.533 4.842,0.708 5.525,0.025C6.208,-0.658 7.033,-1 8,-1C8.967,-1 9.792,-0.658 10.475,0.025C11.158,0.708 11.5,1.533 11.5,2.5C11.5,3.3 11.267,4.004 10.8,4.613C10.333,5.221 9.733,5.633 9,5.85L9,6.275L16,10.3C16.317,10.483 16.563,10.729 16.738,11.038C16.913,11.346 17,11.683 17,12.05L17,13.95C17,14.317 16.913,14.654 16.738,14.962C16.563,15.271 16.317,15.517 16,15.7L9,19.725C8.683,19.908 8.35,20 8,20C7.65,20 7.317,19.908 7,19.725L0,15.7C-0.317,15.517 -0.563,15.271 -0.738,14.962C-0.913,14.654 -1,14.317 -1,13.95L-1,12.05C-1,11.683 -0.913,11.346 -0.738,11.038C-0.563,10.729 -0.317,10.483 0,10.3L7,6.275ZM7,15.725L1,12.275L1,13.95L8,18L15,13.95L15,12.275L9,15.725C8.683,15.908 8.35,16 8,16C7.65,16 7.317,15.908 7,15.725ZM8,4C8.417,4 8.771,3.854 9.063,3.563C9.354,3.271 9.5,2.917 9.5,2.5C9.5,2.083 9.354,1.729 9.063,1.438C8.771,1.146 8.417,1 8,1C7.583,1 7.229,1.146 6.938,1.438C6.646,1.729 6.5,2.083 6.5,2.5C6.5,2.917 6.646,3.271 6.938,3.563C7.229,3.854 7.583,4 8,4Z" fill="#E8EAED"/>
</svg>
