<svg width="280" height="280" viewBox="0 0 280 280" fill="none" xmlns="http://www.w3.org/2000/svg" xmlns:xlink="http://www.w3.org/1999/xlink">
<g filter="url(#filter8_52)">
<path d="M0,40C0,17.909 17.909,0 40,0L240,0C262.092,0 280,17.909 280,40L280,240C280,262.092 262.092,280 240,280L40,280C17.909,280 0,262.092 0,240L0,40Z" fill="url(#pattern_0_8_52)"/>
<path d="M0,40C0,17.909 17.909,0 40,0L240,0C262.092,0 280,17.909 280,40L280,240C280,262.092 262.092,280 240,280L40,280C17.909,280 0,262.092 0,240L0,40Z" fill="url(#pf_1_8_52)"/>
<path d="M0,40C0,17.909 17.909,0 40,0L240,0C262.092,0 280,17.909 280,40L280,240C280,262.092 262.092,280 240,280L40,280C17.909,280 0,262.092 0,240L0,40Z" stroke="#727272" stroke-width="1" stroke-miterlimit="3.999327"/>
<path d="M0,40C0,17.909 17.909,0 40,0L240,0C262.092,0 280,17.909 280,40L280,240C280,262.092 262.092,280 240,280L40,280C17.909,280 0,262.092 0,240L0,40Z" fill="url(#pattern_0_8_52)"/>
<path d="M0,40C0,17.909 17.909,0 40,0L240,0C262.092,0 280,17.909 280,40L280,240C280,262.092 262.092,280 240,280L40,280C17.909,280 0,262.092 0,240L0,40Z" fill="url(#pf_1_8_52)"/>
<path d="M0,40C0,17.909 17.909,0 40,0L240,0C262.092,0 280,17.909 280,40L280,240C280,262.092 262.092,280 240,280L40,280C17.909,280 0,262.092 0,240L0,40Z" stroke="#727272" stroke-width="1" stroke-miterlimit="3.999327"/>
<path d="M0,40C0,17.909 17.909,0 40,0L240,0C262.092,0 280,17.909 280,40L280,240C280,262.092 262.092,280 240,280L40,280C17.909,280 0,262.092 0,240L0,40Z" fill="url(#pattern_0_8_52)"/>
<path d="M0,40C0,17.909 17.909,0 40,0L240,0C262.092,0 280,17.909 280,40L280,240C280,262.092 262.092,280 240,280L40,280C17.909,280 0,262.092 0,240L0,40Z" fill="url(#pf_1_8_52)"/>
<path d="M0,40C0,17.909 17.909,0 40,0L240,0C262.092,0 280,17.909 280,40L280,240C280,262.092 262.092,280 240,280L40,280C17.909,280 0,262.092 0,240L0,40Z" stroke="#727272" stroke-width="1" stroke-miterlimit="3.999327"/>
<path d="M0,40C0,17.909 17.909,0 40,0L240,0C262.092,0 280,17.909 280,40L280,240C280,262.092 262.092,280 240,280L40,280C17.909,280 0,262.092 0,240L0,40Z" fill="url(#pattern_0_8_52)"/>
<path d="M0,40C0,17.909 17.909,0 40,0L240,0C262.092,0 280,17.909 280,40L280,240C280,262.092 262.092,280 240,280L40,280C17.909,280 0,262.092 0,240L0,40Z" fill="url(#pf_1_8_52)"/>
<path d="M0,40C0,17.909 17.909,0 40,0L240,0C262.092,0 280,17.909 280,40L280,240C280,262.092 262.092,280 240,280L40,280C17.909,280 0,262.092 0,240L0,40Z" stroke="#727272" stroke-width="1" stroke-miterlimit="3.999327"/>
<path d="M0,40C0,17.909 17.909,0 40,0L240,0C262.092,0 280,17.909 280,40L280,240C280,262.092 262.092,280 240,280L40,280C17.909,280 0,262.092 0,240L0,40Z" fill="url(#pattern_0_8_52)"/>
<path d="M0,40C0,17.909 17.909,0 40,0L240,0C262.092,0 280,17.909 280,40L280,240C280,262.092 262.092,280 240,280L40,280C17.909,280 0,262.092 0,240L0,40Z" fill="url(#pf_1_8_52)"/>
<path d="M0,40C0,17.909 17.909,0 40,0L240,0C262.092,0 280,17.909 280,40L280,240C280,262.092 262.092,280 240,280L40,280C17.909,280 0,262.092 0,240L0,40Z" stroke="#727272" stroke-width="1" stroke-miterlimit="3.999327"/>
<path d="M0,40C0,17.909 17.909,0 40,0L240,0C262.092,0 280,17.909 280,40L280,240C280,262.092 262.092,280 240,280L40,280C17.909,280 0,262.092 0,240L0,40Z" fill="url(#pattern_0_8_52)"/>
<path d="M0,40C0,17.909 17.909,0 40,0L240,0C262.092,0 280,17.909 280,40L280,240C280,262.092 262.092,280 240,280L40,280C17.909,280 0,262.092 0,240L0,40Z" fill="url(#pf_1_8_52)"/>
<path d="M0,40C0,17.909 17.909,0 40,0L240,0C262.092,0 280,17.909 280,40L280,240C280,262.092 262.092,280 240,280L40,280C17.909,280 0,262.092 0,240L0,40Z" stroke="#727272" stroke-width="1" stroke-miterlimit="3.999327"/>
<path d="M0,40C0,17.909 17.909,0 40,0L240,0C262.092,0 280,17.909 280,40L280,240C280,262.092 262.092,280 240,280L40,280C17.909,280 0,262.092 0,240L0,40Z" fill="url(#pattern_0_8_52)"/>
<path d="M0,40C0,17.909 17.909,0 40,0L240,0C262.092,0 280,17.909 280,40L280,240C280,262.092 262.092,280 240,280L40,280C17.909,280 0,262.092 0,240L0,40Z" fill="url(#pf_1_8_52)"/>
<path d="M0,40C0,17.909 17.909,0 40,0L240,0C262.092,0 280,17.909 280,40L280,240C280,262.092 262.092,280 240,280L40,280C17.909,280 0,262.092 0,240L0,40Z" stroke="#727272" stroke-width="1" stroke-miterlimit="3.999327"/>
<path d="M0,40C0,17.909 17.909,0 40,0L240,0C262.092,0 280,17.909 280,40L280,240C280,262.092 262.092,280 240,280L40,280C17.909,280 0,262.092 0,240L0,40Z" fill="url(#pattern_0_8_52)"/>
<path d="M0,40C0,17.909 17.909,0 40,0L240,0C262.092,0 280,17.909 280,40L280,240C280,262.092 262.092,280 240,280L40,280C17.909,280 0,262.092 0,240L0,40Z" fill="url(#pf_1_8_52)"/>
<path d="M0,40C0,17.909 17.909,0 40,0L240,0C262.092,0 280,17.909 280,40L280,240C280,262.092 262.092,280 240,280L40,280C17.909,280 0,262.092 0,240L0,40Z" stroke="#727272" stroke-width="1" stroke-miterlimit="3.999327"/>
<path d="M0,40C0,17.909 17.909,0 40,0L240,0C262.092,0 280,17.909 280,40L280,240C280,262.092 262.092,280 240,280L40,280C17.909,280 0,262.092 0,240L0,40Z" fill="url(#pattern_0_8_52)"/>
<path d="M0,40C0,17.909 17.909,0 40,0L240,0C262.092,0 280,17.909 280,40L280,240C280,262.092 262.092,280 240,280L40,280C17.909,280 0,262.092 0,240L0,40Z" fill="url(#pf_1_8_52)"/>
<path d="M0,40C0,17.909 17.909,0 40,0L240,0C262.092,0 280,17.909 280,40L280,240C280,262.092 262.092,280 240,280L40,280C17.909,280 0,262.092 0,240L0,40Z" stroke="#727272" stroke-width="1" stroke-miterlimit="3.999327"/>
<path d="M0,40C0,17.909 17.909,0 40,0L240,0C262.092,0 280,17.909 280,40L280,240C280,262.092 262.092,280 240,280L40,280C17.909,280 0,262.092 0,240L0,40Z" fill="url(#pattern_0_8_52)"/>
<path d="M0,40C0,17.909 17.909,0 40,0L240,0C262.092,0 280,17.909 280,40L280,240C280,262.092 262.092,280 240,280L40,280C17.909,280 0,262.092 0,240L0,40Z" fill="url(#pf_1_8_52)"/>
<path d="M0,40C0,17.909 17.909,0 40,0L240,0C262.092,0 280,17.909 280,40L280,240C280,262.092 262.092,280 240,280L40,280C17.909,280 0,262.092 0,240L0,40Z" stroke="#727272" stroke-width="1" stroke-miterlimit="3.999327"/>
<path d="M0,40C0,17.909 17.909,0 40,0L240,0C262.092,0 280,17.909 280,40L280,240C280,262.092 262.092,280 240,280L40,280C17.909,280 0,262.092 0,240L0,40Z" fill="url(#pattern_0_8_52)"/>
<path d="M0,40C0,17.909 17.909,0 40,0L240,0C262.092,0 280,17.909 280,40L280,240C280,262.092 262.092,280 240,280L40,280C17.909,280 0,262.092 0,240L0,40Z" fill="url(#pf_1_8_52)"/>
<path d="M0,40C0,17.909 17.909,0 40,0L240,0C262.092,0 280,17.909 280,40L280,240C280,262.092 262.092,280 240,280L40,280C17.909,280 0,262.092 0,240L0,40Z" stroke="#727272" stroke-width="1" stroke-miterlimit="3.999327"/>
</g>
<path d="M33.8,240L39,243L44.2,240L40,237.575L40,241L38,241L38,237.575L33.8,240ZM38,235.275L38,234.85C37.267,234.633 36.667,234.221 36.2,233.613C35.733,233.004 35.5,232.3 35.5,231.5C35.5,230.533 35.842,229.708 36.525,229.025C37.208,228.342 38.033,228 39,228C39.967,228 40.792,228.342 41.475,229.025C42.158,229.708 42.5,230.533 42.5,231.5C42.5,232.3 42.267,233.004 41.8,233.613C41.333,234.221 40.733,234.633 40,234.85L40,235.275L47,239.3C47.317,239.483 47.563,239.729 47.738,240.038C47.913,240.346 48,240.683 48,241.05L48,242.95C48,243.317 47.913,243.654 47.738,243.962C47.563,244.271 47.317,244.517 47,244.7L40,248.725C39.683,248.908 39.35,249 39,249C38.65,249 38.317,248.908 38,248.725L31,244.7C30.683,244.517 30.438,244.271 30.262,243.962C30.087,243.654 30,243.317 30,242.95L30,241.05C30,240.683 30.087,240.346 30.262,240.038C30.438,239.729 30.683,239.483 31,239.3L38,235.275ZM38,244.725L32,241.275L32,242.95L39,247L46,242.95L46,241.275L40,244.725C39.683,244.908 39.35,245 39,245C38.65,245 38.317,244.908 38,244.725ZM39,233C39.417,233 39.771,232.854 40.063,232.563C40.354,232.271 40.5,231.917 40.5,231.5C40.5,231.083 40.354,230.729 40.063,230.438C39.771,230.146 39.417,230 39,230C38.583,230 38.229,230.146 37.938,230.438C37.646,230.729 37.5,231.083 37.5,231.5C37.5,231.917 37.646,232.271 37.938,232.563C38.229,232.854 38.583,233 39,233Z" fill="#E8EAED"/>
<defs>
<filter id="filter8_52" x="-4" y="-4" width="148" height="148" filterUnits="userSpaceOnUse" color-interpolation-filters="sRGB">
<feFlood flood-opacity="0" result="BackgroundImageFix"/>
<feColorMatrix in="SourceAlpha" type="matrix" values="0 0 0 0 0 0 0 0 0 0 0 0 0 0 0 0 0 0 127 0" result="hardAlpha"/>
<feMorphology radius="0" operator="dilate" in="SourceAlpha" result="0dropshadow"/>
<feOffset dx="0" dy="4"/>
<feGaussianBlur stdDeviation="2"/>
<feComposite in2="hardAlpha" operator="out"/>
<feColorMatrix type="matrix" values="0 0 0 0 0 0 0 0 0 0 0 0 0 0 0 0 0 0 0.25 0"/>
<feBlend mode="normal" in2="BackgroundImageFix" result="0dropshadow"/>
<feBlend mode="normal" in="SourceGraphic" in2="0dropshadow" result="shape"/>
</filter>
<linearGradient id="pf_1_8_52" x1="140" y1="0" x2="140" y2="280" gradientUnits="userSpaceOnUse">
<stop stop-color="#000000" stop-opacity="0.58"/>
<stop offset="0" stop-color="#000000" stop-opacity="0.58"/>
</linearGradient>
<linearGradient id="pf_1_8_52" x1="140" y1="0" x2="140" y2="280" gradientUnits="userSpaceOnUse">
<stop stop-color="#000000" stop-opacity="0.58"/>
<stop offset="0" stop-color="#000000" stop-opacity="0.58"/>
</linearGradient>
<linearGradient id="pf_1_8_52" x1="140" y1="0" x2="140" y2="280" gradientUnits="userSpaceOnUse">
<stop stop-color="#000000" stop-opacity="0.58"/>
<stop offset="0" stop-color="#000000" stop-opacity="0.58"/>
</linearGradient>
<linearGradient id="pf_1_8_52" x1="140" y1="0" x2="140" y2="280" gradientUnits="userSpaceOnUse">
<stop stop-color="#000000" stop-opacity="0.58"/>
<stop offset="0" stop-color="#000000" stop-opacity="0.58"/>
</linearGradient>
<linearGradient id="pf_1_8_52" x1="140" y1="0" x2="140" y2="280" gradientUnits="userSpaceOnUse">
<stop stop-color="#000000" stop-opacity="0.58"/>
<stop offset="0" stop-color="#000000" stop-opacity="0.58"/>
</linearGradient>
<linearGradient id="pf_1_8_52" x1="140" y1="0" x2="140" y2="280" gradientUnits="userSpaceOnUse">
<stop stop-color="#000000" stop-opacity="0.58"/>
<stop offset="0" stop-color="#000000" stop-opacity="0.58"/>
</linearGradient>
<linearGradient id="pf_1_8_52" x1="140" y1="0" x2="140" y2="280" gradientUnits="userSpaceOnUse">
<stop stop-color="#000000" stop-opacity="0.58"/>
<stop offset="0" stop-color="#000000" stop-opacity="0.58"/>
</linearGradient>
<linearGradient id="pf_1_8_52" x1="140" y1="0" x2="140" y2="280" gradientUnits="userSpaceOnUse">
<stop stop-color="#000000" stop-opacity="0.58"/>
<stop offset="0" stop-color="#000000" stop-opacity="0.58"/>
</linearGradient>
<linearGradient id="pf_1_8_52" x1="140" y1="0" x2="140" y2="280" gradientUnits="userSpaceOnUse">
<stop stop-color="#000000" stop-opacity="0.58"/>
<stop offset="0" stop-color="#000000" stop-opacity="0.58"/>
</linearGradient>
<linearGradient id="pf_1_8_52" x1="140" y1="0" x2="140" y2="280" gradientUnits="userSpaceOnUse">
<stop stop-color="#000000" stop-opacity="0.58"/>
<stop offset="0" stop-color="#000000" stop-opacity="0.58"/>
</linearGradient>
<linearGradient id="pf_1_8_52" x1="140" y1="0" x2="140" y2="280" gradientUnits="userSpaceOnUse">
<stop stop-color="#000000" stop-opacity="0.58"/>
<stop offset="0" stop-color="#000000" stop-opacity="0.58"/>
</linearGradient>
</defs>
</svg>
