<svg width="280" height="280" viewBox="0 0 280 280" fill="none" xmlns="http://www.w3.org/2000/svg" xmlns:xlink="http://www.w3.org/1999/xlink">
<g filter="url(#filter8_45)">
<path d="M0,40C0,17.909 17.909,0 40,0L240,0C262.092,0 280,17.909 280,40L280,240C280,262.092 262.092,280 240,280L40,280C17.909,280 0,262.092 0,240L0,40Z" fill="url(#pattern_0_8_45)"/>
<path d="M0,40C0,17.909 17.909,0 40,0L240,0C262.092,0 280,17.909 280,40L280,240C280,262.092 262.092,280 240,280L40,280C17.909,280 0,262.092 0,240L0,40Z" fill="url(#pf_1_8_45)"/>
<path d="M0,40C0,17.909 17.909,0 40,0L240,0C262.092,0 280,17.909 280,40L280,240C280,262.092 262.092,280 240,280L40,280C17.909,280 0,262.092 0,240L0,40Z" stroke="#727272" stroke-width="1" stroke-miterlimit="3.999327"/>
<path d="M0,40C0,17.909 17.909,0 40,0L240,0C262.092,0 280,17.909 280,40L280,240C280,262.092 262.092,280 240,280L40,280C17.909,280 0,262.092 0,240L0,40Z" fill="url(#pattern_0_8_45)"/>
<path d="M0,40C0,17.909 17.909,0 40,0L240,0C262.092,0 280,17.909 280,40L280,240C280,262.092 262.092,280 240,280L40,280C17.909,280 0,262.092 0,240L0,40Z" fill="url(#pf_1_8_45)"/>
<path d="M0,40C0,17.909 17.909,0 40,0L240,0C262.092,0 280,17.909 280,40L280,240C280,262.092 262.092,280 240,280L40,280C17.909,280 0,262.092 0,240L0,40Z" stroke="#727272" stroke-width="1" stroke-miterlimit="3.999327"/>
<path d="M0,40C0,17.909 17.909,0 40,0L240,0C262.092,0 280,17.909 280,40L280,240C280,262.092 262.092,280 240,280L40,280C17.909,280 0,262.092 0,240L0,40Z" fill="url(#pattern_0_8_45)"/>
<path d="M0,40C0,17.909 17.909,0 40,0L240,0C262.092,0 280,17.909 280,40L280,240C280,262.092 262.092,280 240,280L40,280C17.909,280 0,262.092 0,240L0,40Z" fill="url(#pf_1_8_45)"/>
<path d="M0,40C0,17.909 17.909,0 40,0L240,0C262.092,0 280,17.909 280,40L280,240C280,262.092 262.092,280 240,280L40,280C17.909,280 0,262.092 0,240L0,40Z" stroke="#727272" stroke-width="1" stroke-miterlimit="3.999327"/>
<path d="M0,40C0,17.909 17.909,0 40,0L240,0C262.092,0 280,17.909 280,40L280,240C280,262.092 262.092,280 240,280L40,280C17.909,280 0,262.092 0,240L0,40Z" fill="url(#pattern_0_8_45)"/>
<path d="M0,40C0,17.909 17.909,0 40,0L240,0C262.092,0 280,17.909 280,40L280,240C280,262.092 262.092,280 240,280L40,280C17.909,280 0,262.092 0,240L0,40Z" fill="url(#pf_1_8_45)"/>
<path d="M0,40C0,17.909 17.909,0 40,0L240,0C262.092,0 280,17.909 280,40L280,240C280,262.092 262.092,280 240,280L40,280C17.909,280 0,262.092 0,240L0,40Z" stroke="#727272" stroke-width="1" stroke-miterlimit="3.999327"/>
<path d="M0,40C0,17.909 17.909,0 40,0L240,0C262.092,0 280,17.909 280,40L280,240C280,262.092 262.092,280 240,280L40,280C17.909,280 0,262.092 0,240L0,40Z" fill="url(#pattern_0_8_45)"/>
<path d="M0,40C0,17.909 17.909,0 40,0L240,0C262.092,0 280,17.909 280,40L280,240C280,262.092 262.092,280 240,280L40,280C17.909,280 0,262.092 0,240L0,40Z" fill="url(#pf_1_8_45)"/>
<path d="M0,40C0,17.909 17.909,0 40,0L240,0C262.092,0 280,17.909 280,40L280,240C280,262.092 262.092,280 240,280L40,280C17.909,280 0,262.092 0,240L0,40Z" stroke="#727272" stroke-width="1" stroke-miterlimit="3.999327"/>
<path d="M0,40C0,17.909 17.909,0 40,0L240,0C262.092,0 280,17.909 280,40L280,240C280,262.092 262.092,280 240,280L40,280C17.909,280 0,262.092 0,240L0,40Z" fill="url(#pattern_0_8_45)"/>
<path d="M0,40C0,17.909 17.909,0 40,0L240,0C262.092,0 280,17.909 280,40L280,240C280,262.092 262.092,280 240,280L40,280C17.909,280 0,262.092 0,240L0,40Z" fill="url(#pf_1_8_45)"/>
<path d="M0,40C0,17.909 17.909,0 40,0L240,0C262.092,0 280,17.909 280,40L280,240C280,262.092 262.092,280 240,280L40,280C17.909,280 0,262.092 0,240L0,40Z" stroke="#727272" stroke-width="1" stroke-miterlimit="3.999327"/>
<path d="M0,40C0,17.909 17.909,0 40,0L240,0C262.092,0 280,17.909 280,40L280,240C280,262.092 262.092,280 240,280L40,280C17.909,280 0,262.092 0,240L0,40Z" fill="url(#pattern_0_8_45)"/>
<path d="M0,40C0,17.909 17.909,0 40,0L240,0C262.092,0 280,17.909 280,40L280,240C280,262.092 262.092,280 240,280L40,280C17.909,280 0,262.092 0,240L0,40Z" fill="url(#pf_1_8_45)"/>
<path d="M0,40C0,17.909 17.909,0 40,0L240,0C262.092,0 280,17.909 280,40L280,240C280,262.092 262.092,280 240,280L40,280C17.909,280 0,262.092 0,240L0,40Z" stroke="#727272" stroke-width="1" stroke-miterlimit="3.999327"/>
<path d="M0,40C0,17.909 17.909,0 40,0L240,0C262.092,0 280,17.909 280,40L280,240C280,262.092 262.092,280 240,280L40,280C17.909,280 0,262.092 0,240L0,40Z" fill="url(#pattern_0_8_45)"/>
<path d="M0,40C0,17.909 17.909,0 40,0L240,0C262.092,0 280,17.909 280,40L280,240C280,262.092 262.092,280 240,280L40,280C17.909,280 0,262.092 0,240L0,40Z" fill="url(#pf_1_8_45)"/>
<path d="M0,40C0,17.909 17.909,0 40,0L240,0C262.092,0 280,17.909 280,40L280,240C280,262.092 262.092,280 240,280L40,280C17.909,280 0,262.092 0,240L0,40Z" stroke="#727272" stroke-width="1" stroke-miterlimit="3.999327"/>
<path d="M0,40C0,17.909 17.909,0 40,0L240,0C262.092,0 280,17.909 280,40L280,240C280,262.092 262.092,280 240,280L40,280C17.909,280 0,262.092 0,240L0,40Z" fill="url(#pattern_0_8_45)"/>
<path d="M0,40C0,17.909 17.909,0 40,0L240,0C262.092,0 280,17.909 280,40L280,240C280,262.092 262.092,280 240,280L40,280C17.909,280 0,262.092 0,240L0,40Z" fill="url(#pf_1_8_45)"/>
<path d="M0,40C0,17.909 17.909,0 40,0L240,0C262.092,0 280,17.909 280,40L280,240C280,262.092 262.092,280 240,280L40,280C17.909,280 0,262.092 0,240L0,40Z" stroke="#727272" stroke-width="1" stroke-miterlimit="3.999327"/>
<path d="M0,40C0,17.909 17.909,0 40,0L240,0C262.092,0 280,17.909 280,40L280,240C280,262.092 262.092,280 240,280L40,280C17.909,280 0,262.092 0,240L0,40Z" fill="url(#pattern_0_8_45)"/>
<path d="M0,40C0,17.909 17.909,0 40,0L240,0C262.092,0 280,17.909 280,40L280,240C280,262.092 262.092,280 240,280L40,280C17.909,280 0,262.092 0,240L0,40Z" fill="url(#pf_1_8_45)"/>
<path d="M0,40C0,17.909 17.909,0 40,0L240,0C262.092,0 280,17.909 280,40L280,240C280,262.092 262.092,280 240,280L40,280C17.909,280 0,262.092 0,240L0,40Z" stroke="#727272" stroke-width="1" stroke-miterlimit="3.999327"/>
<path d="M0,40C0,17.909 17.909,0 40,0L240,0C262.092,0 280,17.909 280,40L280,240C280,262.092 262.092,280 240,280L40,280C17.909,280 0,262.092 0,240L0,40Z" fill="url(#pattern_0_8_45)"/>
<path d="M0,40C0,17.909 17.909,0 40,0L240,0C262.092,0 280,17.909 280,40L280,240C280,262.092 262.092,280 240,280L40,280C17.909,280 0,262.092 0,240L0,40Z" fill="url(#pf_1_8_45)"/>
<path d="M0,40C0,17.909 17.909,0 40,0L240,0C262.092,0 280,17.909 280,40L280,240C280,262.092 262.092,280 240,280L40,280C17.909,280 0,262.092 0,240L0,40Z" stroke="#727272" stroke-width="1" stroke-miterlimit="3.999327"/>
</g>
<defs>
<filter id="filter8_45" x="-4" y="-4" width="148" height="148" filterUnits="userSpaceOnUse" color-interpolation-filters="sRGB">
<feFlood flood-opacity="0" result="BackgroundImageFix"/>
<feColorMatrix in="SourceAlpha" type="matrix" values="0 0 0 0 0 0 0 0 0 0 0 0 0 0 0 0 0 0 127 0" result="hardAlpha"/>
<feMorphology radius="0" operator="dilate" in="SourceAlpha" result="0dropshadow"/>
<feOffset dx="0" dy="4"/>
<feGaussianBlur stdDeviation="2"/>
<feComposite in2="hardAlpha" operator="out"/>
<feColorMatrix type="matrix" values="0 0 0 0 0 0 0 0 0 0 0 0 0 0 0 0 0 0 0.25 0"/>
<feBlend mode="normal" in2="BackgroundImageFix" result="0dropshadow"/>
<feBlend mode="normal" in="SourceGraphic" in2="0dropshadow" result="shape"/>
</filter>
<linearGradient id="pf_1_8_45" x1="140" y1="0" x2="140" y2="280" gradientUnits="userSpaceOnUse">
<stop stop-color="#000000" stop-opacity="0.67"/>
<stop offset="0" stop-color="#000000" stop-opacity="0.67"/>
</linearGradient>
<linearGradient id="pf_1_8_45" x1="140" y1="0" x2="140" y2="280" gradientUnits="userSpaceOnUse">
<stop stop-color="#000000" stop-opacity="0.67"/>
<stop offset="0" stop-color="#000000" stop-opacity="0.67"/>
</linearGradient>
<linearGradient id="pf_1_8_45" x1="140" y1="0" x2="140" y2="280" gradientUnits="userSpaceOnUse">
<stop stop-color="#000000" stop-opacity="0.67"/>
<stop offset="0" stop-color="#000000" stop-opacity="0.67"/>
</linearGradient>
<linearGradient id="pf_1_8_45" x1="140" y1="0" x2="140" y2="280" gradientUnits="userSpaceOnUse">
<stop stop-color="#000000" stop-opacity="0.67"/>
<stop offset="0" stop-color="#000000" stop-opacity="0.67"/>
</linearGradient>
<linearGradient id="pf_1_8_45" x1="140" y1="0" x2="140" y2="280" gradientUnits="userSpaceOnUse">
<stop stop-color="#000000" stop-opacity="0.67"/>
<stop offset="0" stop-color="#000000" stop-opacity="0.67"/>
</linearGradient>
<linearGradient id="pf_1_8_45" x1="140" y1="0" x2="140" y2="280" gradientUnits="userSpaceOnUse">
<stop stop-color="#000000" stop-opacity="0.67"/>
<stop offset="0" stop-color="#000000" stop-opacity="0.67"/>
</linearGradient>
<linearGradient id="pf_1_8_45" x1="140" y1="0" x2="140" y2="280" gradientUnits="userSpaceOnUse">
<stop stop-color="#000000" stop-opacity="0.67"/>
<stop offset="0" stop-color="#000000" stop-opacity="0.67"/>
</linearGradient>
<linearGradient id="pf_1_8_45" x1="140" y1="0" x2="140" y2="280" gradientUnits="userSpaceOnUse">
<stop stop-color="#000000" stop-opacity="0.67"/>
<stop offset="0" stop-color="#000000" stop-opacity="0.67"/>
</linearGradient>
<linearGradient id="pf_1_8_45" x1="140" y1="0" x2="140" y2="280" gradientUnits="userSpaceOnUse">
<stop stop-color="#000000" stop-opacity="0.67"/>
<stop offset="0" stop-color="#000000" stop-opacity="0.67"/>
</linearGradient>
<linearGradient id="pf_1_8_45" x1="140" y1="0" x2="140" y2="280" gradientUnits="userSpaceOnUse">
<stop stop-color="#000000" stop-opacity="0.67"/>
<stop offset="0" stop-color="#000000" stop-opacity="0.67"/>
</linearGradient>
<linearGradient id="pf_1_8_45" x1="140" y1="0" x2="140" y2="280" gradientUnits="userSpaceOnUse">
<stop stop-color="#000000" stop-opacity="0.67"/>
<stop offset="0" stop-color="#000000" stop-opacity="0.67"/>
</linearGradient>
</defs>
</svg>
