<svg width="36" height="32" viewBox="0 0 36 32" fill="none" xmlns="http://www.w3.org/2000/svg" xmlns:xlink="http://www.w3.org/1999/xlink">
<path d="M7.2,19.2L21.6,19.2L21.6,16L7.2,16L7.2,19.2ZM7.2,14.4L28.8,14.4L28.8,11.2L7.2,11.2L7.2,14.4ZM7.2,9.6L28.8,9.6L28.8,6.4L7.2,6.4L7.2,9.6ZM0,32L0,3.2C0,2.32 0.352,1.567 1.057,0.94C1.762,0.313 2.61,0 3.6,0L32.4,0C33.39,0 34.238,0.313 34.943,0.94C35.648,1.567 36,2.32 36,3.2L36,22.4C36,23.28 35.648,24.033 34.943,24.66C34.238,25.287 33.39,25.6 32.4,25.6L7.2,25.6L0,32ZM5.67,22.4L32.4,22.4L32.4,3.2L3.6,3.2L3.6,24.2L5.67,22.4Z" fill="#E8EAED"/>
</svg>
