<svg width="22" height="16" viewBox="0 0 22 16" fill="none" xmlns="http://www.w3.org/2000/svg" xmlns:xlink="http://www.w3.org/1999/xlink">
<path d="M10,12C11.25,12 12.313,11.563 13.188,10.688C14.063,9.813 14.5,8.75 14.5,7.5C14.5,6.25 14.063,5.188 13.188,4.313C12.313,3.438 11.25,3 10,3C8.75,3 7.688,3.438 6.813,4.313C5.938,5.188 5.5,6.25 5.5,7.5C5.5,8.75 5.938,9.813 6.813,10.688C7.688,11.563 8.75,12 10,12ZM10,10.2C9.25,10.2 8.613,9.938 8.087,9.413C7.563,8.887 7.3,8.25 7.3,7.5C7.3,6.75 7.563,6.113 8.087,5.587C8.613,5.063 9.25,4.8 10,4.8C10.75,4.8 11.387,5.063 11.913,5.587C12.438,6.113 12.7,6.75 12.7,7.5C12.7,8.25 12.438,8.887 11.913,9.413C11.387,9.938 10.75,10.2 10,10.2ZM10,15C7.567,15 5.35,14.321 3.35,12.962C1.35,11.604 -0.1,9.783 -1,7.5C-0.1,5.217 1.35,3.396 3.35,2.038C5.35,0.679 7.567,0 10,0C12.433,0 14.65,0.679 16.65,2.038C18.65,3.396 20.1,5.217 21,7.5C20.1,9.783 18.65,11.604 16.65,12.962C14.65,14.321 12.433,15 10,15ZM10,13C11.883,13 13.613,12.504 15.188,11.512C16.762,10.521 17.967,9.183 18.8,7.5C17.967,5.817 16.762,4.479 15.188,3.488C13.613,2.496 11.883,2 10,2C8.117,2 6.387,2.496 4.813,3.488C3.238,4.479 2.033,5.817 1.2,7.5C2.033,9.183 3.238,10.521 4.813,11.512C6.387,12.504 8.117,13 10,13Z" fill="#E8EAED"/>
</svg>
