<svg width="34" height="32" viewBox="0 0 34 32" fill="none" xmlns="http://www.w3.org/2000/svg" xmlns:xlink="http://www.w3.org/1999/xlink">
<path d="M32.317,15.151C32.317,6.258 25.264,-0.946 16.558,-0.946C7.852,-0.946 0.798,6.258 0.798,15.151C0.798,23.185 6.563,29.845 14.092,31.054L14.092,19.801L10.086,19.801L10.086,15.151L14.092,15.151L14.092,11.602C14.092,7.567 16.446,5.342 20.046,5.342C21.769,5.342 23.576,5.657 23.576,5.657L23.576,9.613L21.587,9.613C19.633,9.613 19.016,10.851 19.016,12.124L19.016,15.143L23.387,15.143L22.687,19.794L19.016,19.794L19.016,31.04C26.553,29.838 32.317,23.185 32.317,15.151Z" fill="#3E3D3D"/>
</svg>
